<?xml version="1.0"?>
<svg xmlns:rdf="http://www.w3.org/1999/02/22-rdf-syntax-ns#" xmlns="http://www.w3.org/2000/svg" xmlns:cc="http://creativecommons.org/ns#" xmlns:dc="http://purl.org/dc/elements/1.1/" xmlns:svg="http://www.w3.org/2000/svg" id="svg7594" viewBox="0 0 26 30" version="1.0">
  <g id="layer1">
    <g id="g11262" transform="translate(-279.11 -276.32)">
      <g id="g8688" transform="translate(.0069953 -.0028574)">
        <path id="path26233" d="m287.1 302.44s0-5 8.03-5c8.04 0 8.04 5 8.04 5s0 2.41-8.04 2.41c-8.03 0-8.03-2.14-8.03-2.41z" fill="#fce94f" fill-rule="evenodd"/>
        <path id="path26235" d="m294.38 296.81c-3.3-0.09-5.38 1.27-6.54 2.66-1.14 1.37-1.46 2.77-1.46 2.81v0.03c-0.01 0.03-0.07 0.34 0.03 0.69 0.1 0.37 0.35 0.78 0.87 1.16 1.04 0.75 3.01 1.37 7.1 1.4 4.08 0.03 6.37-0.61 7.68-1.31 0.66-0.35 1.07-0.69 1.32-1 0.24-0.31 0.34-0.63 0.34-0.63l0.03-0.15v-0.13s-0.23-1.46-1.53-2.84-3.69-2.68-7.81-2.69h-0.03zm-0.04 1.25h0.04c3.88 0 5.84 1.2 6.9 2.32 0.91 0.95 1.11 1.73 1.16 1.96-0.01 0.02 0.01 0-0.06 0.1-0.14 0.16-0.39 0.44-0.91 0.72-1.05 0.55-3.15 1.15-7.09 1.12-3.96-0.03-5.7-0.65-6.35-1.12-0.32-0.24-0.38-0.41-0.41-0.5-0.02-0.09-0.03-0.07-0.03-0.07v-0.03s0.26-1.13 1.22-2.28c0.97-1.15 2.57-2.31 5.53-2.22z" fill-rule="evenodd"/>
        <path id="path8674" d="m299.97 295.37c-3.59 6.22-12.92 7.33-16.5 5.26-3.59-2.07 9.45-1.21 13.04-7.43 3.59-6.21-3.63-16.9-0.04-14.83 3.58 2.07 7.09 10.79 3.5 17z" fill="#edd400"/>
        <path id="path2900" d="m296.22 277.72c-0.22-0.05-0.49-0.07-0.72 0.09s-0.31 0.42-0.34 0.63-0.04 0.43 0 0.65c0.13 0.92 0.61 2.2 1.06 3.79 0.9 3.16 1.72 7.28 0.06 10.15s-5.67 4.22-8.9 5.03c-1.62 0.41-3.01 0.66-3.88 1-0.22 0.09-0.39 0.19-0.56 0.32-0.17 0.12-0.35 0.34-0.38 0.62s0.1 0.52 0.25 0.69c0.16 0.17 0.35 0.29 0.6 0.43 1.99 1.15 5.3 1.36 8.62 0.54 3.33-0.82 6.68-2.71 8.56-5.97s1.91-7.13 1-10.44c-0.9-3.31-2.69-6.1-4.68-7.25-0.25-0.14-0.47-0.23-0.69-0.28zm-0.06 1.03c0.07 0.03 0.12 0.05 0.25 0.13 1.59 0.91 3.37 3.53 4.21 6.65 0.85 3.12 0.84 6.7-0.87 9.66-1.71 2.95-4.81 4.73-7.94 5.5s-6.31 0.51-7.9-0.41c-0.13-0.07-0.16-0.13-0.22-0.19 0.06-0.03 0.09-0.05 0.19-0.09 0.67-0.27 2.1-0.55 3.74-0.97 3.29-0.83 7.31-2.38 9.24-5.72s1.21-7.47 0.3-10.69c-0.46-1.6-0.9-2.98-1-3.68-0.02-0.09 0-0.13 0-0.19z"/>
        <path id="path8672" fill="#c4a000" d="m296.65 293.11c-3.59 6.22-9.41 9.58-13 7.51-3.58-2.07-3.58-8.79 0.01-15.01 3.59-6.21 9.41-9.57 12.99-7.5 3.59 2.07 3.59 8.79 0 15z"/>
        <path id="path3781" d="m296.91 277.76c-1.99-1.15-4.55-0.8-6.99 0.62-2.45 1.41-4.85 3.9-6.69 7.07-1.83 3.18-2.77 6.47-2.77 9.3s0.96 5.24 2.95 6.39c2 1.16 4.56 0.77 7.01-0.64s4.84-3.87 6.67-7.05c1.83-3.17 2.78-6.5 2.79-9.32 0-2.83-0.97-5.22-2.97-6.37zm-0.5 0.87c1.59 0.91 2.46 2.89 2.46 5.49 0 2.61-0.89 5.79-2.65 8.83-1.75 3.04-4.05 5.38-6.31 6.68-2.25 1.3-4.41 1.56-6 0.65-1.59-0.92-2.44-2.92-2.44-5.53 0-2.6 0.87-5.76 2.63-8.8 1.75-3.04 4.07-5.4 6.32-6.7 2.26-1.31 4.4-1.54 5.99-0.62z"/>
        <path id="path8662" fill="#edd400" d="m288 288.22c-0.56 0.95-1.47 1.46-2.04 1.13-0.58-0.33-0.59-1.38-0.04-2.33 0.55-0.96 1.46-1.47 2.04-1.14 0.57 0.34 0.59 1.38 0.04 2.34z"/>
        <path id="path8660" d="m288.2 285.61c-0.44-0.25-0.96-0.18-1.41 0.06-0.44 0.25-0.84 0.66-1.15 1.19s-0.48 1.12-0.47 1.62c0.01 0.51 0.22 1 0.66 1.25 0.43 0.26 0.96 0.16 1.4-0.09 0.45-0.25 0.85-0.65 1.16-1.19 0.31-0.53 0.44-1.08 0.44-1.59-0.01-0.51-0.19-1-0.63-1.25zm-0.37 0.66c0.13 0.07 0.24 0.25 0.25 0.59 0 0.33-0.13 0.79-0.38 1.22-0.24 0.42-0.55 0.74-0.84 0.9-0.3 0.17-0.52 0.15-0.66 0.07-0.13-0.08-0.24-0.26-0.25-0.6 0-0.33 0.1-0.76 0.34-1.18 0.25-0.43 0.59-0.75 0.88-0.91s0.52-0.17 0.66-0.09z"/>
        <path id="path4666" d="m288.44 288.03l-0.53 0.85 8 5 0.53-0.85-8-5z" fill-rule="evenodd"/>
      </g>
    </g>
  </g>
  <metadata>
    <rdf:RDF>
      <cc:Work>
        <dc:format>image/svg+xml</dc:format>
        <dc:type rdf:resource="http://purl.org/dc/dcmitype/StillImage"/>
        <cc:license rdf:resource="http://creativecommons.org/licenses/publicdomain/"/>
        <dc:publisher>
          <cc:Agent rdf:about="http://openclipart.org/">
            <dc:title>Openclipart</dc:title>
          </cc:Agent>
        </dc:publisher>
        <dc:title>parabolic antenna</dc:title>
        <dc:date>2008-06-08T18:00:19</dc:date>
        <dc:description>antenna, antenna, clip art, clipart, image, media, public domain, radio, radio, svg, wifi, wifi, wimax, wimax, </dc:description>
        <dc:source>http://openclipart.org/detail/17315/parabolic-antenna-by-jcartier</dc:source>
        <dc:creator>
          <cc:Agent>
            <dc:title>jcartier</dc:title>
          </cc:Agent>
        </dc:creator>
        <dc:subject>
          <rdf:Bag>
            <rdf:li>antenna</rdf:li>
            <rdf:li>clip art</rdf:li>
            <rdf:li>clipart</rdf:li>
            <rdf:li>image</rdf:li>
            <rdf:li>media</rdf:li>
            <rdf:li>public domain</rdf:li>
            <rdf:li>radio</rdf:li>
            <rdf:li>svg</rdf:li>
            <rdf:li>wifi</rdf:li>
            <rdf:li>wimax</rdf:li>
          </rdf:Bag>
        </dc:subject>
      </cc:Work>
      <cc:License rdf:about="http://creativecommons.org/licenses/publicdomain/">
        <cc:permits rdf:resource="http://creativecommons.org/ns#Reproduction"/>
        <cc:permits rdf:resource="http://creativecommons.org/ns#Distribution"/>
        <cc:permits rdf:resource="http://creativecommons.org/ns#DerivativeWorks"/>
      </cc:License>
    </rdf:RDF>
  </metadata>
</svg>
